<svg width="29" height="27" viewBox="0 0 29 27" fill="none" xmlns="http://www.w3.org/2000/svg">
<rect width="29" height="27" rx="13.5" fill="white"/>
<path d="M24.8925 21.7995C23.3999 19.2288 21.0096 17.3007 18.1812 16.3859C19.5362 15.5797 20.589 14.351 21.178 12.8884C21.767 11.4259 21.8595 9.81044 21.4415 8.29021C21.0234 6.76997 20.1178 5.42901 18.8638 4.47331C17.6098 3.5176 16.0767 3 14.5 3C12.9233 3 11.3902 3.5176 10.1362 4.47331C8.88219 5.42901 7.9766 6.76997 7.55852 8.29021C7.14045 9.81044 7.23301 11.4259 7.82199 12.8884C8.41097 14.351 9.4638 15.5797 10.8188 16.3859C7.99046 17.3006 5.60016 19.2287 4.10754 21.7993C4.05493 21.8902 4.02074 21.9906 4.00694 22.0948C3.99313 22.1989 3.99997 22.3047 4.02707 22.4062C4.05417 22.5077 4.10099 22.6029 4.16487 22.6863C4.22874 22.7697 4.30842 22.8397 4.39935 22.8923C4.49028 22.9449 4.59068 22.9791 4.69482 22.9929C4.79896 23.0067 4.90481 22.9999 5.0063 22.9728C5.1078 22.9457 5.20296 22.8989 5.28637 22.835C5.36977 22.7711 5.43977 22.6914 5.49238 22.6005C6.40556 21.0197 7.71869 19.707 9.29985 18.7944C10.881 17.8818 12.6745 17.4014 14.5001 17.4014C16.3257 17.4014 18.1192 17.8819 19.7003 18.7945C21.2815 19.7072 22.5946 21.0199 23.5077 22.6007C23.5603 22.6916 23.6303 22.7713 23.7137 22.8352C23.7971 22.899 23.8923 22.9458 23.9938 22.9729C24.0953 23 24.2011 23.0069 24.3052 22.9931C24.4094 22.9793 24.5098 22.9451 24.6007 22.8925C24.6916 22.8399 24.7713 22.7698 24.8352 22.6865C24.899 22.6031 24.9458 22.5079 24.9729 22.4064C25 22.3049 25.0069 22.1991 24.9931 22.0949C24.9792 21.9908 24.9451 21.8904 24.8925 21.7995ZM8.90059 10.2023C8.90059 9.09482 9.22898 8.01225 9.84425 7.09144C10.4595 6.17064 11.334 5.45296 12.3572 5.02916C13.3803 4.60536 14.5062 4.49447 15.5923 4.71052C16.6785 4.92657 17.6762 5.45986 18.4593 6.24294C19.2424 7.02602 19.7757 8.02373 19.9917 9.10989C20.2078 10.1961 20.0969 11.3219 19.6731 12.345C19.2493 13.3682 18.5316 14.2427 17.6108 14.8579C16.69 15.4732 15.6074 15.8016 14.4999 15.8016C13.0154 15.7999 11.5922 15.2094 10.5425 14.1597C9.49276 13.11 8.90228 11.6868 8.90059 10.2023V10.2023Z" fill="black"/>
</svg>
